<svg id="Capa_1" data-name="Capa 1" xmlns="http://www.w3.org/2000/svg" viewBox="0 0 924.67 87.63"><defs><style>.cls-1{fill:#42210b;}.cls-2{fill:#8c6239;}.cls-3{fill:#a67c52;}.cls-4{fill:#593b06;}</style></defs><title>grafic</title><rect class="cls-1" x="64.68" y="19.24" width="232" height="56"/><path d="M339,22V77H108V22H339m1-1H107V78H340V21Z" transform="translate(-42.82 -2.26)"/><ellipse class="cls-2" cx="777.18" cy="52.74" rx="43.5" ry="31.5"/><path d="M820,24c23.71,0,43,13.91,43,31s-19.29,31-43,31-43-13.91-43-31,19.29-31,43-31m0-1c-24.3,0-44,14.33-44,32s19.7,32,44,32,44-14.33,44-32-19.7-32-44-32Z" transform="translate(-42.82 -2.26)"/><polygon class="cls-1" points="621.31 37.5 603.12 30.75 619.54 20.42 620.33 1.03 635.23 13.45 653.91 8.22 646.71 26.23 657.46 42.38 638.1 41.09 626.06 56.3 621.31 37.5"/><path d="M663.61,4.33l13.92,11.6.41.34.5-.14,17.46-4.89-6.74,16.82-.19.49.29.44,10,15.08-18.08-1.2-.53,0-.32.41L669.12,57.46l-4.44-17.57-.13-.51-.49-.18-17-6.3,15.33-9.66.45-.28,0-.52.74-18.11m-.91-2.07-.83,20.14-17,10.73,18.89,7,4.94,19.53,12.5-15.8,20.11,1.34L690.09,28.43l7.49-18.7-19.41,5.43L662.7,2.26Z" transform="translate(-42.82 -2.26)"/><polygon class="cls-3" points="462.34 67.03 450.49 66.76 457.92 57.52 454.52 46.17 465.6 50.38 475.35 43.64 474.77 55.48 484.19 62.67 472.75 65.77 468.83 76.95 462.34 67.03"/><path d="M517.62,46.89l-.52,10.56,0,.53.42.32,8.4,6.41-10.2,2.77-.51.14-.17.5-3.51,10-5.78-8.85-.29-.44h-.53l-10.57-.25L501,60.3l.33-.41-.15-.5-3-10.13L508,53l.49.18.44-.3,8.69-6m1.1-2-10.36,7.16-11.78-4.47,3.61,12.07-7.9,9.81,12.6.3,6.9,10.55L516,68.45l12.16-3.3-10-7.65.62-12.58Z" transform="translate(-42.82 -2.26)"/><path d="M913.15,26.39C866.2,62.7,804.6,70.52,747,66.62a411.19,411.19,0,0,1-45.08-5.36,95.68,95.68,0,0,1-25.16-8.19A72.14,72.14,0,0,0,655,46c-30-4.21-62.11,2.53-89,16.13a220.41,220.41,0,0,0-20.18,12.12c-7.25,4.69-14.41,7.28-23.1,7.47-16,.34-32.27-2.51-47.54-7.09a170.38,170.38,0,0,1-42.36-19.37c-6.32-4-12.18-9.85-19.06-12.83-6.68-2.89-13.63-.53-20,2-27.9,11.05-53.43,31.33-85.14,26.25-29.89-4.79-54.2-25.22-81-37.79-13.87-6.51-29.24-11.32-44.73-9.61s-29.87,9.33-43.28,17A320.67,320.67,0,0,0,99.46,67.48C93.8,72,86.38,81.18,78.45,80.1,69.81,78.93,65.54,69.5,63,62.29c-2.13-6-4.12-11.91-8.23-16.9-1.22-1.5-3.33.64-2.12,2.12C61.27,58,60.19,75.57,74,81.92c5.66,2.6,11.13.86,15.88-2.72,6.62-5,12.75-10.57,19.41-15.51a312.66,312.66,0,0,1,42.14-26.42c16.38-8.52,33.23-13.74,51.73-9.81C233.78,34,258.31,56,286.92,67.53c13.31,5.37,27.58,8.33,41.93,6.42s27.51-8.16,40.27-14.56c7-3.52,14-7.17,21.24-10.29,8.72-3.78,17.46-7.55,26.16-1.68C423,51.77,429,56.57,435.75,60.56A172.24,172.24,0,0,0,456.26,71,173.16,173.16,0,0,0,500.7,83.22c14.75,2,30.35,3.4,43.64-4.47,6.74-4,13-8.59,19.93-12.3a153,153,0,0,1,22.78-10A156.42,156.42,0,0,1,634.76,48c8.67-.17,17.58.12,26,2.14S676.73,57,684.93,60c14.33,5.3,30.41,6.62,45.52,8.21,56.62,6,118,2.2,167.83-28a179.34,179.34,0,0,0,17-11.72c1.52-1.18-.62-3.28-2.13-2.12Z" transform="translate(-42.82 -2.26)"/><path class="cls-4" d="M964.68,24.22c-15.87,26.33-53,27.18-80.18,26.07a260.78,260.78,0,0,1-55.06-8.21c-16.17-4.22-32.2-12.18-49.13-12.6-26.78-.67-46.73,20.09-65.36,36.45a188.27,188.27,0,0,1-16.62,13.33c-6.93,4.82-14.78,9.75-23.52,7.11-8.12-2.45-15.63-8.35-22.44-13.23C645.13,68,638.15,62.41,631,57c-24.38-18.39-55-36.28-86.35-24.95-26.42,9.56-45.11,35.43-73.27,40.83-7.83,1.51-15.67.37-21.78-5-4.06-3.57-7.1-8.12-9.91-12.69-4.9-8-9.25-17.59-17.25-23-9.39-6.35-19.89-2.64-27.92,4.07-5.94,5-11,10.89-17.46,15.19a64.46,64.46,0,0,1-20.83,8.85c-16.48,3.9-33.61,1.93-49.55-3.32-16.71-5.49-31.35-14.59-46.54-23.2-11.39-6.46-24.08-10.62-36.49-4.44A37.4,37.4,0,0,0,204,55.67a29.92,29.92,0,0,0,1.5,16.17l2.21-1.69c-26.84-14-57.45-29.27-88.67-24.37C103.5,48.23,91.37,58,76.57,62.37c-11.77,3.5-32.14-.75-30.67-16.73.17-1.93-2.83-1.91-3,0C41.82,57.41,53,65.13,63.57,66.61c14.67,2.07,27.71-8,40.51-13.42,34.45-14.57,71.66,3.63,102.14,19.55,1.05.55,2.71-.39,2.21-1.7-4.88-12.66.52-26.8,10.75-35.16a28.33,28.33,0,0,1,18.08-6.71c8.76.11,16.82,4.53,24.16,8.87,26.89,15.87,56.19,31.14,88.48,26.56a68.65,68.65,0,0,0,37.78-17.79c9.19-8.59,21.55-21.27,34.37-11.16,8,6.31,12,16.78,17.59,25,6.06,9,13.91,16,25.34,15.91,13.49-.06,26.4-7.42,37.28-14.71,11.66-7.8,22.52-16.92,35.08-23.32,15-7.65,31.25-8.81,47.39-4,16.36,4.85,30.62,14.43,44.12,24.59C642,69,655,80.88,670.13,87.77c13.28,6.07,24.9-2,35.27-10,20.47-15.8,39-40.27,65.94-44.69,17.53-2.87,34.21,5.3,50.64,10.06a264.35,264.35,0,0,0,50.45,9.38c26.91,2.35,61,3.44,83.65-14.13a45.63,45.63,0,0,0,11.19-12.66c1-1.65-1.59-3.16-2.59-1.51Z" transform="translate(-42.82 -2.26)"/></svg>